<?xml version="1.0" encoding="utf-8"?>
<!-- Generator: Adobe Illustrator 28.0.0, SVG Export Plug-In . SVG Version: 6.00 Build 0)  -->
<svg version="1.1"
	 id="svg2" xmlns:svg="http://www.w3.org/2000/svg" xmlns:inkscape="http://www.inkscape.org/namespaces/inkscape" xmlns:cc="http://creativecommons.org/ns#" xmlns:dc="http://purl.org/dc/elements/1.1/" xmlns:rdf="http://www.w3.org/1999/02/22-rdf-syntax-ns#" xmlns:sodipodi="http://sodipodi.sourceforge.net/DTD/sodipodi-0.dtd" inkscape:version="1.0 (4035a4fb49, 2020-05-01)" sodipodi:docname="No-Image-Placeholder.svg"
	 xmlns="http://www.w3.org/2000/svg" xmlns:xlink="http://www.w3.org/1999/xlink" x="0px" y="0px" viewBox="0 0 329.8 406"
	 style="enable-background:new 0 0 329.8 406;" xml:space="preserve">
<style type="text/css">
	.st0{fill:#D6D6D6;}
	.st1{fill:#9F9F9F;}
	
		.st2{fill:url(#rect961_00000155846933911694416980000002880316522677774769_);stroke:#FFFFFF;stroke-width:5.398;stroke-linecap:round;stroke-linejoin:round;}
	
		.st3{fill-rule:evenodd;clip-rule:evenodd;fill:#CCCCCC;stroke:#FFFFFF;stroke-width:0.3896;stroke-linecap:round;stroke-linejoin:round;stroke-miterlimit:1.7265;}
	
		.st4{fill-rule:evenodd;clip-rule:evenodd;fill:#FFFFFF;stroke:#FFFFFF;stroke-width:0.3896;stroke-linecap:round;stroke-linejoin:round;stroke-miterlimit:1.7265;}
	
		.st5{fill-rule:evenodd;clip-rule:evenodd;fill:#B3B3B3;stroke:#FFFFFF;stroke-width:0.3896;stroke-linecap:round;stroke-linejoin:round;stroke-miterlimit:1.7265;}
	.st6{enable-background:new    ;}
	.st7{fill:#686868;}
</style>
<defs>
	<inkscape:path-effect  effect="spiro" id="path-effect3414" is_visible="true" lpeversion="0"></inkscape:path-effect>
	<inkscape:path-effect  effect="spiro" id="path-effect3410" is_visible="true" lpeversion="0"></inkscape:path-effect>
	<inkscape:path-effect  effect="spiro" id="path-effect3406" is_visible="true" lpeversion="0"></inkscape:path-effect>
	<inkscape:path-effect  effect="spiro" id="path-effect3402" is_visible="true" lpeversion="0"></inkscape:path-effect>
	<inkscape:path-effect  effect="spiro" id="path-effect3398" is_visible="true" lpeversion="0"></inkscape:path-effect>
	<inkscape:path-effect  effect="spiro" id="path-effect3392" is_visible="true" lpeversion="0"></inkscape:path-effect>
	<inkscape:path-effect  effect="spiro" id="path-effect3388" is_visible="true" lpeversion="0"></inkscape:path-effect>
	<inkscape:path-effect  effect="spiro" id="path-effect3372" is_visible="true" lpeversion="0"></inkscape:path-effect>
	<inkscape:path-effect  effect="spiro" id="path-effect3368" is_visible="true" lpeversion="0"></inkscape:path-effect>
	<inkscape:path-effect  effect="spiro" id="path-effect3364" is_visible="true" lpeversion="0"></inkscape:path-effect>
	<inkscape:path-effect  effect="spiro" id="path-effect3360" is_visible="true" lpeversion="0"></inkscape:path-effect>
	<inkscape:path-effect  effect="spiro" id="path-effect3346" is_visible="true" lpeversion="0"></inkscape:path-effect>
	<inkscape:path-effect  effect="spiro" id="path-effect3392-8" is_visible="true" lpeversion="0"></inkscape:path-effect>
</defs>
<sodipodi:namedview  bordercolor="#666666" borderopacity="1.0" fit-margin-bottom="0" fit-margin-left="0" fit-margin-right="0" fit-margin-top="0" id="base" inkscape:current-layer="layer1" inkscape:cx="148.40044" inkscape:cy="109.10202" inkscape:document-rotation="0" inkscape:document-units="px" inkscape:guide-bbox="true" inkscape:object-nodes="true" inkscape:pageopacity="0.0" inkscape:pageshadow="2" inkscape:snap-smooth-nodes="true" inkscape:window-height="1004" inkscape:window-maximized="1" inkscape:window-width="1920" inkscape:window-x="0" inkscape:window-y="42" inkscape:zoom="0.7071068" pagecolor="#ffffff" showgrid="false" showguides="false" units="px">
	<inkscape:grid  id="grid3336" originx="-399.13435" originy="-510.42818" type="xygrid"></inkscape:grid>
	<sodipodi:guide  id="guide3375" orientation="0,1" position="-117.13437,-25.564321"></sodipodi:guide>
	<sodipodi:guide  id="guide3377" orientation="0,1" position="-114.13437,-23.564321"></sodipodi:guide>
	<sodipodi:guide  id="guide3380" orientation="0,1" position="-121.13437,-27.564321"></sodipodi:guide>
	<sodipodi:guide  id="guide3382" orientation="0,1" position="-114.13437,-22.564321"></sodipodi:guide>
	<sodipodi:guide  id="guide3384" orientation="0,1" position="-114.13437,-21.564321"></sodipodi:guide>
	<sodipodi:guide  id="guide3416" orientation="-2,0.5" position="-115.13437,-25.564311"></sodipodi:guide>
	<sodipodi:guide  id="guide3420" orientation="-2,0.5" position="-115.13437,-25.564311"></sodipodi:guide>
	<sodipodi:guide  id="guide4180" orientation="0.24382204,-0.96981999" position="206.80442,220.41193"></sodipodi:guide>
	<sodipodi:guide  id="guide4182" orientation="1,0" position="86.804424,280.52227"></sodipodi:guide>
	<sodipodi:guide  id="guide4186" orientation="1,0" position="206.80442,250.52231"></sodipodi:guide>
	<sodipodi:guide  id="guide4188" orientation="-0.24382199,0.96982" position="206.80442,190.30156"></sodipodi:guide>
</sodipodi:namedview>
<g id="layer1" transform="translate(-399.13437,-122.79051)" inkscape:groupmode="layer" inkscape:label="Layer 1">
	<path id="rect1017" class="st0" d="M406.1,122.8h315.8c3.9,0,7,3.1,7,7v392c0,3.9-3.1,7-7,7H406.1c-3.9,0-7-3.1-7-7v-392
		C399.1,125.9,402.3,122.8,406.1,122.8z"/>
	<g id="g1015" transform="translate(43.778173,191.04163)">
		<path id="rect1002" class="st1" d="M464.8,80.3l44.1-12.9c3.1-0.9,6.4,0.9,7.3,4l14.5,49.5c0.9,3.1-0.9,6.4-4,7.3l-44.1,12.9
			c-3.1,0.9-6.4-0.9-7.3-4l-14.5-49.5C459.9,84.5,461.7,81.2,464.8,80.3z"/>
		<g id="g1000" transform="rotate(16.320529,538.13563,-184.89727)">
			
				<linearGradient id="rect961_00000157992470834519434090000018406325116073602469_" gradientUnits="userSpaceOnUse" x1="1786.8735" y1="325.0693" x2="1785.7485" y2="396.5434" gradientTransform="matrix(1 8.875644e-06 -8.875644e-06 1 -1192.2936 -279.4477)">
				<stop  offset="0" style="stop-color:#C2C2C2"/>
				<stop  offset="1" style="stop-color:#9F9F9F"/>
			</linearGradient>
			
				<path id="rect961" style="fill:url(#rect961_00000157992470834519434090000018406325116073602469_);stroke:#FFFFFF;stroke-width:5.398;stroke-linecap:round;stroke-linejoin:round;" d="
				M569.5,39.3l69,0c1.8,0,3.2,1.4,3.2,3.2l0,74.7c0,1.8-1.4,3.2-3.2,3.2l-69,0c-1.8,0-3.2-1.4-3.2-3.2V42.5
				C566.3,40.7,567.7,39.3,569.5,39.3z"/>
			<g id="g875" transform="matrix(0.17265471,0,0,0.17265471,512.49324,-6.3296456)">
				
					<rect id="rect3338" x="374.3" y="292.6" transform="matrix(5.638356e-06 1 -1 5.638356e-06 996.0634 -67.3728)" class="st3" width="314.8" height="343.5"/>
				
					<rect id="rect3342" x="458.2" y="208.7" transform="matrix(5.638356e-06 1 -1 5.638356e-06 912.132 -151.2221)" class="st4" width="146.9" height="343.5"/>
				
					<path id="path3344" inkscape:connector-curvature="0" inkscape:original-d="m 300,317.36255 38.46147,-53.53818 60.53097,-45.16084 15.88277,18.57394 13.61285,-38.68356 8.20133,-2.98188 13.3106,-28.2093 180,179.99979" inkscape:path-effect="#path-effect3346" sodipodi:nodetypes="cccccccc" class="st3" d="
					M380.9,453.9l26.9-37.5l42.3-31.6l11.1,13l9.5-27.1l5.7-2.1l9.3-19.7l125.9,125.9"/>
				<path id="path3390-0" inkscape:connector-curvature="0" sodipodi:nodetypes="cscccccccccccc" class="st5" d="M485.9,348.9
					c2.9,11.5,5.4,23.1,7.6,34.8c1.7,8.9,3.1,17.7,4.4,26.7l-15.4-5l-32.3-20.6l3.7,32.5l-1.1,17.3l7,21.2l51.2-8.2l58.8-14.8
					l-33.4-54.2l-6.8,10.4l-19-15.5L485.9,348.9z"/>
				
					<path id="path3358" inkscape:connector-curvature="0" inkscape:original-d="m 419.99999,347.36252 81.89918,-74.42959 18.50574,-9.68009 23.6512,-44.18894 25.94388,-21.70121 179.99999,179.99979" inkscape:path-effect="#path-effect3360" sodipodi:nodetypes="cccccc" class="st3" d="
					M464.9,474.9l57.3-52.1l12.9-6.8l16.5-30.9l18.1-15.2l125.9,125.9"/>
				
					<path id="path3386" inkscape:connector-curvature="0" inkscape:original-d="m 569.99999,197.36269 35.9388,80.91289 v 30.11038 30.11038 l 22.45864,19.46652 c 5.77311,-6.36416 13.54339,-11.40815 22.44431,-15.70477 13.00316,-6.27685 32.0432,-8.74899 47.17057,-13.6217 6.8762,-2.21491 12.68001,-4.81998 18.21343,-7.87277 1.55883,-0.86001 1.99765,-2.671 3.77424,-3.40107 h -30 l -40.52149,-40.55006 -29.85645,-48.91972 -10.25307,8.83886 z" inkscape:path-effect="#path-effect3388" sodipodi:nodetypes="cccccssscccccc" class="st5" d="
					M569.8,369.9l25.1,56.6v21.1v21.1l15.7,13.6c4.6-4.5,9.9-8.2,15.7-11c10.4-4.9,21.9-6.5,33-9.5c4.5-1.2,9-2.7,12.7-5.5
					c0.9-0.7,1.8-1.5,2.6-2.4l-21,0l-28.3-28.4l-20.9-34.2l-7.2,6.2L569.8,369.9z"/>
				<path id="path3370" inkscape:connector-curvature="0" sodipodi:nodetypes="cssssscsssssc" class="st4" d="M464.9,621.8
					c-0.3-6.7-6.2-12.3,12-21.5c22.3-11.2,88.1-25.1,106.4-42c13.6-12.5-49.3-26.4-38.5-41.3c4.9-6.8,41.3-14,57.5-21.2
					c15.3-6.8,10.6-13.9,22-21c11-6.9,47.8-13.8,50.5-21c-7.3,7.4-48.2,14.3-63,21c-15.6,7.1-15,13.9-34.6,20.6
					c-21.1,7.2-62.4,14.4-71.8,21.3c-19.9,14.6,32.8,29.8,11.3,42c-29,16.5-104.5,30.3-135.7,42c-21.6,8.1-19.9,12.4-21,21"/>
			</g>
		</g>
	</g>
	<g>
		<g class="st6">
			<path class="st7" d="M525.6,369.9v16.3H523l-7.7-11.1h-0.1v11.1h-2.9v-16.3h2.6l7.7,11.1h0.1v-11.1H525.6z"/>
			<path class="st7" d="M534,386.4c-1.2,0-2.2-0.3-3.1-0.8c-0.9-0.5-1.6-1.3-2-2.2c-0.5-0.9-0.7-2-0.7-3.3c0-1.3,0.2-2.4,0.7-3.3
				c0.5-0.9,1.2-1.7,2-2.2c0.9-0.5,1.9-0.8,3.1-0.8s2.2,0.3,3.1,0.8c0.9,0.5,1.6,1.3,2,2.2c0.5,0.9,0.7,2.1,0.7,3.3
				c0,1.3-0.2,2.4-0.7,3.3c-0.5,0.9-1.2,1.7-2,2.2C536.3,386.2,535.2,386.4,534,386.4z M534.1,384.1c0.6,0,1.2-0.2,1.6-0.5
				c0.4-0.4,0.8-0.8,1-1.4c0.2-0.6,0.3-1.3,0.3-2c0-0.7-0.1-1.4-0.3-2c-0.2-0.6-0.5-1.1-1-1.5s-1-0.5-1.6-0.5
				c-0.7,0-1.2,0.2-1.6,0.5c-0.4,0.4-0.8,0.8-1,1.5c-0.2,0.6-0.3,1.3-0.3,2c0,0.7,0.1,1.4,0.3,2c0.2,0.6,0.5,1.1,1,1.4
				C532.8,383.9,533.4,384.1,534.1,384.1z"/>
			<path class="st7" d="M548,386.2v-16.3h6.1c1.3,0,2.3,0.2,3.2,0.7c0.9,0.5,1.5,1.1,1.9,1.9s0.7,1.7,0.7,2.8c0,1-0.2,2-0.7,2.8
				c-0.4,0.8-1.1,1.4-1.9,1.9c-0.9,0.5-1.9,0.7-3.2,0.7h-4v-2.4h3.6c0.7,0,1.3-0.1,1.8-0.4c0.5-0.3,0.8-0.6,1-1
				c0.2-0.4,0.3-1,0.3-1.5c0-0.6-0.1-1.1-0.3-1.5c-0.2-0.4-0.6-0.8-1-1c-0.5-0.2-1.1-0.4-1.8-0.4H551v13.8H548z"/>
			<path class="st7" d="M567.6,386.4c-1.2,0-2.2-0.3-3.1-0.8c-0.9-0.5-1.6-1.3-2-2.2c-0.5-0.9-0.7-2-0.7-3.3c0-1.3,0.2-2.4,0.7-3.3
				c0.5-0.9,1.2-1.7,2-2.2c0.9-0.5,1.9-0.8,3.1-0.8s2.2,0.3,3.1,0.8c0.9,0.5,1.6,1.3,2,2.2c0.5,0.9,0.7,2.1,0.7,3.3
				c0,1.3-0.2,2.4-0.7,3.3c-0.5,0.9-1.2,1.7-2,2.2C569.8,386.2,568.8,386.4,567.6,386.4z M567.6,384.1c0.6,0,1.2-0.2,1.6-0.5
				c0.4-0.4,0.8-0.8,1-1.4c0.2-0.6,0.3-1.3,0.3-2c0-0.7-0.1-1.4-0.3-2c-0.2-0.6-0.5-1.1-1-1.5s-1-0.5-1.6-0.5
				c-0.7,0-1.2,0.2-1.6,0.5c-0.4,0.4-0.8,0.8-1,1.5c-0.2,0.6-0.3,1.3-0.3,2c0,0.7,0.1,1.4,0.3,2c0.2,0.6,0.5,1.1,1,1.4
				C566.4,383.9,567,384.1,567.6,384.1z"/>
			<path class="st7" d="M585.5,377.2l-2.6,0.3c-0.1-0.3-0.2-0.5-0.4-0.7c-0.2-0.2-0.4-0.4-0.7-0.6c-0.3-0.1-0.7-0.2-1.1-0.2
				c-0.6,0-1.1,0.1-1.5,0.4s-0.6,0.6-0.6,1c0,0.4,0.1,0.6,0.4,0.9s0.7,0.4,1.3,0.5l2.1,0.4c1.2,0.2,2,0.6,2.6,1.2
				c0.6,0.5,0.8,1.2,0.9,2.1c0,0.8-0.2,1.4-0.7,2c-0.4,0.6-1.1,1-1.8,1.4c-0.8,0.3-1.7,0.5-2.7,0.5c-1.5,0-2.7-0.3-3.6-0.9
				c-0.9-0.6-1.5-1.5-1.6-2.6l2.8-0.3c0.1,0.6,0.4,1,0.8,1.2c0.4,0.3,1,0.4,1.6,0.4c0.7,0,1.2-0.1,1.6-0.4c0.4-0.3,0.6-0.6,0.6-1
				c0-0.3-0.1-0.6-0.4-0.9s-0.7-0.4-1.2-0.5l-2.1-0.4c-1.2-0.2-2-0.7-2.6-1.2c-0.6-0.6-0.8-1.3-0.8-2.2c0-0.8,0.2-1.4,0.6-2
				s1-1,1.7-1.3c0.7-0.3,1.6-0.5,2.6-0.5c1.4,0,2.6,0.3,3.4,0.9C584.8,375.3,585.3,376.2,585.5,377.2z"/>
			<path class="st7" d="M594.3,374v2.2h-7V374H594.3z M589,371h2.9v11.5c0,0.4,0.1,0.7,0.2,0.9s0.3,0.3,0.5,0.4s0.4,0.1,0.7,0.1
				c0.2,0,0.3,0,0.5,0c0.2,0,0.3-0.1,0.3-0.1l0.5,2.2c-0.2,0.1-0.4,0.1-0.7,0.2c-0.3,0.1-0.6,0.1-1,0.1c-0.7,0-1.4-0.1-1.9-0.3
				c-0.6-0.2-1-0.6-1.4-1.1c-0.3-0.5-0.5-1.1-0.5-1.9V371z"/>
			<path class="st7" d="M602.1,386.4c-1.2,0-2.3-0.3-3.2-0.8c-0.9-0.5-1.6-1.2-2-2.2c-0.5-0.9-0.7-2-0.7-3.3c0-1.3,0.2-2.4,0.7-3.3
				s1.2-1.7,2-2.2c0.9-0.5,1.9-0.8,3-0.8c0.8,0,1.5,0.1,2.1,0.4c0.7,0.2,1.3,0.6,1.8,1.1c0.5,0.5,0.9,1.1,1.2,1.9s0.4,1.7,0.4,2.8
				v0.9h-10v-1.9h7.2c0-0.6-0.1-1-0.4-1.5c-0.2-0.4-0.6-0.8-1-1c-0.4-0.2-0.9-0.4-1.5-0.4c-0.6,0-1.1,0.1-1.5,0.4
				c-0.4,0.3-0.8,0.7-1,1.1c-0.2,0.5-0.4,1-0.4,1.5v1.7c0,0.7,0.1,1.3,0.4,1.8c0.3,0.5,0.6,0.9,1.1,1.2c0.5,0.3,1,0.4,1.6,0.4
				c0.4,0,0.8-0.1,1.1-0.2c0.3-0.1,0.6-0.3,0.9-0.5c0.2-0.2,0.4-0.5,0.6-0.9l2.7,0.3c-0.2,0.7-0.5,1.3-1,1.9s-1.1,0.9-1.8,1.2
				C603.9,386.3,603,386.4,602.1,386.4z"/>
			<path class="st7" d="M609.9,386.2V374h2.8v2h0.1c0.2-0.7,0.6-1.2,1.1-1.6c0.5-0.4,1.2-0.6,1.9-0.6c0.2,0,0.3,0,0.5,0
				c0.2,0,0.4,0,0.5,0.1v2.6c-0.1,0-0.3-0.1-0.6-0.1c-0.3,0-0.5-0.1-0.8-0.1c-0.5,0-1,0.1-1.4,0.3c-0.4,0.2-0.7,0.5-1,0.9
				s-0.4,0.9-0.4,1.4v7.2H609.9z"/>
		</g>
	</g>
	<g>
		<g class="st6">
			<path class="st7" d="M517.8,414.2h-3.1l5.7-16.3h3.6l5.7,16.3h-3.1l-4.3-12.9h-0.1L517.8,414.2z M518,407.8h8.6v2.4H518V407.8z"
				/>
			<path class="st7" d="M542.7,402l-4.3,12.2h-3.2l-4.3-12.2h3.1l2.8,9.1h0.1l2.8-9.1H542.7z"/>
			<path class="st7" d="M548.2,414.4c-0.8,0-1.5-0.1-2.1-0.4s-1.1-0.7-1.5-1.2c-0.4-0.5-0.5-1.2-0.5-2c0-0.7,0.1-1.3,0.4-1.7
				s0.6-0.8,1-1.1c0.4-0.3,0.9-0.5,1.5-0.6s1.1-0.2,1.7-0.3c0.7-0.1,1.3-0.1,1.7-0.2s0.8-0.2,1-0.3s0.3-0.3,0.3-0.6v0
				c0-0.6-0.2-1.1-0.5-1.4c-0.4-0.3-0.9-0.5-1.5-0.5c-0.7,0-1.3,0.2-1.7,0.5c-0.4,0.3-0.7,0.7-0.8,1.1l-2.7-0.4
				c0.2-0.7,0.6-1.4,1-1.9c0.5-0.5,1.1-0.9,1.8-1.1c0.7-0.3,1.5-0.4,2.3-0.4c0.6,0,1.2,0.1,1.8,0.2c0.6,0.1,1.1,0.4,1.6,0.7
				c0.5,0.3,0.9,0.7,1.2,1.3c0.3,0.5,0.4,1.2,0.4,2v8.2h-2.8v-1.7h-0.1c-0.2,0.3-0.4,0.7-0.7,0.9c-0.3,0.3-0.7,0.5-1.2,0.7
				C549.4,414.3,548.9,414.4,548.2,414.4z M549,412.3c0.6,0,1.1-0.1,1.5-0.3c0.4-0.2,0.8-0.5,1-0.9s0.3-0.8,0.3-1.2v-1.4
				c-0.1,0.1-0.2,0.1-0.5,0.2c-0.2,0.1-0.5,0.1-0.7,0.2s-0.5,0.1-0.8,0.1c-0.3,0-0.5,0.1-0.7,0.1c-0.4,0.1-0.8,0.2-1.2,0.3
				c-0.3,0.1-0.6,0.3-0.8,0.6c-0.2,0.2-0.3,0.5-0.3,0.9c0,0.5,0.2,0.9,0.6,1.2C547.9,412.2,548.4,412.3,549,412.3z"/>
			<path class="st7" d="M559,400.2c-0.5,0-0.8-0.2-1.2-0.5c-0.3-0.3-0.5-0.7-0.5-1.1c0-0.4,0.2-0.8,0.5-1.1c0.3-0.3,0.7-0.5,1.2-0.5
				c0.5,0,0.9,0.2,1.2,0.5c0.3,0.3,0.5,0.7,0.5,1.1c0,0.4-0.2,0.8-0.5,1.1C559.9,400.1,559.5,400.2,559,400.2z M557.6,414.2V402h2.9
				v12.2H557.6z"/>
			<path class="st7" d="M566.3,397.9v16.3h-2.9v-16.3H566.3z"/>
			<path class="st7" d="M572.8,414.4c-0.8,0-1.5-0.1-2.1-0.4s-1.1-0.7-1.5-1.2c-0.4-0.5-0.5-1.2-0.5-2c0-0.7,0.1-1.3,0.4-1.7
				c0.3-0.5,0.6-0.8,1-1.1c0.4-0.3,0.9-0.5,1.5-0.6s1.1-0.2,1.7-0.3c0.7-0.1,1.3-0.1,1.7-0.2s0.8-0.2,1-0.3s0.3-0.3,0.3-0.6v0
				c0-0.6-0.2-1.1-0.5-1.4c-0.4-0.3-0.9-0.5-1.5-0.5c-0.7,0-1.3,0.2-1.7,0.5c-0.4,0.3-0.7,0.7-0.8,1.1l-2.7-0.4
				c0.2-0.7,0.6-1.4,1-1.9c0.5-0.5,1.1-0.9,1.8-1.1s1.5-0.4,2.3-0.4c0.6,0,1.2,0.1,1.8,0.2s1.1,0.4,1.6,0.7s0.9,0.7,1.2,1.3
				c0.3,0.5,0.4,1.2,0.4,2v8.2h-2.8v-1.7h-0.1c-0.2,0.3-0.4,0.7-0.7,0.9s-0.7,0.5-1.2,0.7C574,414.3,573.4,414.4,572.8,414.4z
				 M573.5,412.3c0.6,0,1.1-0.1,1.5-0.3c0.4-0.2,0.8-0.5,1-0.9s0.3-0.8,0.3-1.2v-1.4c-0.1,0.1-0.2,0.1-0.5,0.2s-0.5,0.1-0.7,0.2
				c-0.3,0-0.5,0.1-0.8,0.1c-0.3,0-0.5,0.1-0.7,0.1c-0.4,0.1-0.8,0.2-1.2,0.3c-0.3,0.1-0.6,0.3-0.8,0.6s-0.3,0.5-0.3,0.9
				c0,0.5,0.2,0.9,0.6,1.2S572.9,412.3,573.5,412.3z"/>
			<path class="st7" d="M582.2,414.2v-16.3h2.9v6.1h0.1c0.1-0.3,0.4-0.6,0.6-1c0.3-0.3,0.6-0.6,1.1-0.9c0.5-0.2,1-0.4,1.8-0.4
				c0.9,0,1.8,0.2,2.6,0.7c0.8,0.5,1.4,1.2,1.8,2.1c0.4,0.9,0.7,2.1,0.7,3.4c0,1.3-0.2,2.5-0.7,3.4c-0.4,0.9-1,1.7-1.8,2.1
				c-0.8,0.5-1.6,0.7-2.6,0.7c-0.7,0-1.3-0.1-1.7-0.3c-0.5-0.2-0.8-0.5-1.1-0.8c-0.3-0.3-0.5-0.6-0.6-0.9h-0.2v1.9H582.2z
				 M585.1,408.1c0,0.8,0.1,1.5,0.3,2.1s0.6,1.1,1,1.4c0.4,0.3,0.9,0.5,1.6,0.5c0.6,0,1.2-0.2,1.6-0.5c0.4-0.3,0.8-0.8,1-1.4
				c0.2-0.6,0.3-1.3,0.3-2c0-0.8-0.1-1.4-0.3-2c-0.2-0.6-0.5-1-1-1.4c-0.4-0.3-1-0.5-1.6-0.5c-0.6,0-1.1,0.2-1.6,0.5s-0.8,0.8-1,1.4
				C585.2,406.6,585.1,407.3,585.1,408.1z"/>
			<path class="st7" d="M599.1,397.9v16.3h-2.9v-16.3H599.1z"/>
			<path class="st7" d="M607.5,414.4c-1.2,0-2.3-0.3-3.2-0.8c-0.9-0.5-1.6-1.2-2-2.2c-0.5-0.9-0.7-2-0.7-3.3c0-1.3,0.2-2.4,0.7-3.3
				s1.2-1.7,2-2.2c0.9-0.5,1.9-0.8,3-0.8c0.8,0,1.5,0.1,2.1,0.4c0.7,0.2,1.3,0.6,1.8,1.1c0.5,0.5,0.9,1.1,1.2,1.9s0.4,1.7,0.4,2.8
				v0.9h-10v-1.9h7.2c0-0.6-0.1-1-0.4-1.5c-0.2-0.4-0.6-0.8-1-1c-0.4-0.2-0.9-0.4-1.5-0.4c-0.6,0-1.1,0.1-1.5,0.4
				c-0.4,0.3-0.8,0.7-1,1.1c-0.2,0.5-0.4,1-0.4,1.5v1.7c0,0.7,0.1,1.3,0.4,1.8c0.3,0.5,0.6,0.9,1.1,1.2c0.5,0.3,1,0.4,1.6,0.4
				c0.4,0,0.8-0.1,1.1-0.2c0.3-0.1,0.6-0.3,0.9-0.5c0.2-0.2,0.4-0.5,0.6-0.9l2.7,0.3c-0.2,0.7-0.5,1.3-1,1.9s-1.1,0.9-1.8,1.2
				C609.3,414.3,608.4,414.4,607.5,414.4z"/>
		</g>
	</g>
</g>
</svg>
