<?xml version="1.0" encoding="UTF-8" standalone="no"?>
<svg
   xmlns:dc="http://purl.org/dc/elements/1.1/"
   xmlns:cc="http://creativecommons.org/ns#"
   xmlns:rdf="http://www.w3.org/1999/02/22-rdf-syntax-ns#"
   xmlns:svg="http://www.w3.org/2000/svg"
   xmlns="http://www.w3.org/2000/svg"
   xmlns:sodipodi="http://sodipodi.sourceforge.net/DTD/sodipodi-0.dtd"
   xmlns:inkscape="http://www.inkscape.org/namespaces/inkscape"
   version="1.1"
   id="Layer_1"
   x="0px"
   y="0px"
   width="389.05142"
   height="409.95303"
   viewBox="0 0 389.05142 409.95303"
   enable-background="new 0 0 949.049 1000"
   xml:space="preserve"
   sodipodi:docname="Rotten_Tomatoes_Certified_Fresh_2018.svg"
   inkscape:version="1.0.2-2 (e86c870879, 2021-01-15)"
   inkscape:export-filename="C:\Users\tjdru\OneDrive\Pictures\Logos\Movies\rtcertifiedfresh2018.png"
   inkscape:export-xdpi="234.18289"
   inkscape:export-ydpi="234.18289"><metadata
   id="metadata2635"><rdf:RDF><cc:Work
       rdf:about=""><dc:format>image/svg+xml</dc:format><dc:type
         rdf:resource="http://purl.org/dc/dcmitype/StillImage" /></cc:Work></rdf:RDF></metadata><defs
   id="defs2633">
	
	
	
	
	
	
	
	
	
	
	
	
	
	
	
	
	
	
	
	
	
	
	
	
	
	
	
	
	
	
	
	
	
	
	
	
	
	
	
	
	
	
	
	
	
	
	
	
	
	
	
	
	
	
	
	
	
	
	
	
	
	
	
	
	
	
	
	
	
	
	
	
	
	
	
	
	
	
	
	
	
	
	
</defs><sodipodi:namedview
   pagecolor="#ffffff"
   bordercolor="#666666"
   borderopacity="1"
   objecttolerance="10"
   gridtolerance="10"
   guidetolerance="10"
   inkscape:pageopacity="0"
   inkscape:pageshadow="2"
   inkscape:window-width="1366"
   inkscape:window-height="705"
   id="namedview2631"
   showgrid="false"
   inkscape:zoom="1"
   inkscape:cx="236.58732"
   inkscape:cy="224.58406"
   inkscape:window-x="-8"
   inkscape:window-y="-8"
   inkscape:window-maximized="1"
   inkscape:current-layer="layer3"
   inkscape:document-rotation="0"
   inkscape:snap-bbox="false"
   inkscape:bbox-paths="false"
   inkscape:bbox-nodes="true"
   inkscape:snap-nodes="true" />

<g
   inkscape:groupmode="layer"
   id="layer3"
   inkscape:label="Layer 1"
   transform="translate(9.4948037e-4)"><g
     id="g23549"><path
       sodipodi:nodetypes="cccccc"
       d="m 347.55956,306.10657 c 25.47629,-32.83546 40.6636,-74.03403 40.6636,-118.80519 C 388.22398,80.162569 301.37904,0 194.24269,0 87.101821,0 0.2560654,80.162569 0.2560654,187.30138 c 0,44.81134 15.2172336,86.05376 40.7382066,118.89906 z"
       id="path2464"
       inkscape:connector-curvature="0"
       style="fill:#fa6d0e;fill-opacity:1;stroke:none;stroke-width:0.409936" /><path
       style="fill:#fed801;fill-opacity:1;stroke:none;stroke-width:0.409936"
       d="m 194.24269,8.5315874 c -50.04704,0 -96.678499,18.1525406 -131.291017,51.1157356 C 28.018552,92.915844 8.7774044,138.24927 8.7774044,187.29851 c 0,38.03386 11.4398346,74.58329 33.0580566,105.70281 2.759441,3.97223 5.671054,7.80969 8.700071,11.53109 5.63662,-0.94572 11.288407,-1.8115 16.939784,-2.64285 l 251.813004,-0.32672 c -0.19759,-0.0295 -0.39107,-0.0488 -0.58907,-0.0836 6.44788,0.92523 12.88182,1.90497 19.30962,2.97409 3.08805,-3.80052 6.06398,-7.72564 8.87388,-11.78771 21.46815,-31.035 32.81497,-67.47177 32.81497,-105.36708 0,-49.04924 -19.23762,-94.381632 -54.16894,-127.6512 C 290.9202,26.685159 244.28972,8.5315874 194.24269,8.5315874 Z"
       id="path2524"
       sodipodi:nodetypes="ccccccccccccc" /><path
       id="path2564"
       style="fill:#000000;stroke:none;stroke-width:0.409936"
       d="m 322.47517,74.424695 -8.41312,-9.294068 -25.73824,23.30445 8.4082,9.288329 c 6.28537,6.943284 15.9005,11.000944 25.66896,2.155443 4.66211,-4.221619 6.65518,-9.031224 6.03712,-13.480744 -0.61872,-4.454289 -2.64105,-8.303705 -5.96292,-11.97341 z m -20.59642,17.171808 -1.62908,-1.798799 13.99029,-12.663742 1.59834,1.759445 c 4.89665,5.390207 5.03165,10.143387 0.48045,14.264542 -4.77198,4.321067 -9.58447,3.799932 -14.44,-1.561446 z m -10.48124,-18.347094 4.29039,-6.304815 -12.98062,-8.83617 2.98392,-4.384265 13.67834,9.313335 4.45846,-6.552007 -21.61592,-14.720391 -19.54288,28.702897 21.62125,14.720391 4.45928,-6.552417 -13.67874,-9.308416 3.34467,-4.911852 z M 254.75087,66.96468 268.66779,35.14914 260.40717,31.536374 246.4964,63.349045 Z M 224.316,20.883778 l -8.15076,33.755768 8.76484,2.118139 2.99335,-12.426389 13.92102,3.360245 1.79224,-7.413282 -13.91077,-3.360655 1.49463,-6.217499 15.02415,3.632032 1.8607,-7.707616 z m -15.34022,-1.643023 -9.0026,-0.487414 -1.89062,34.668695 8.99686,0.485364 z m -48.8205,10.253728 9.34367,-1.130603 3.20652,26.599925 8.99727,-1.08633 -3.21184,-26.604845 9.34818,-1.123224 -0.95024,-7.865852 -27.68338,3.340158 z m -22.799,-1.358118 -13.0745,4.48101 11.25316,32.84735 8.53199,-2.919974 -3.48445,-10.169282 3.375,-1.160938 9.52158,8.099104 9.79378,-3.355325 -10.99653,-9.321125 c 3.33114,-3.288096 4.18893,-7.196096 2.59899,-11.837721 -2.50286,-7.306778 -8.94706,-9.600959 -17.51902,-6.663099 z m 0.66861,16.788518 -2.64778,-7.732212 4.03336,-1.383534 c 3.93378,-1.349377 6.0035,-0.80029 6.90332,1.823805 0.9162,2.671876 -0.5046,4.622539 -4.25554,5.908817 z m -15.46976,11.674157 -4.0682,-6.450343 -13.28275,8.375402 -2.8306,-4.478141 13.98537,-8.83412 -4.22603,-6.697534 -22.116455,13.95996 18.533205,29.361254 22.11113,-13.96037 -4.22603,-6.698763 -13.9903,8.826741 -3.16757,-5.025405 z M 92.555199,79.148387 c 0.668195,4.055497 0.243721,6.615736 -2.494051,9.410081 -1.80514,1.842442 -3.929622,2.74042 -6.453212,2.692049 -2.523543,-0.04837 -4.805624,-1.110655 -6.824204,-3.088048 -1.979537,-1.939146 -3.055661,-4.164444 -3.151998,-6.682776 -0.09674,-2.528802 0.693211,-4.66671 2.459616,-6.470839 2.49488,-2.548162 4.557668,-2.890049 8.056882,-2.711726 L 83.9654,64.138992 c -5.399676,-0.366483 -10.104799,1.470543 -14.024729,5.468546 -3.57206,3.643205 -5.300498,7.863638 -5.231193,12.693257 0.06885,4.797812 1.909559,8.945972 5.557502,12.518215 3.641538,3.565972 7.868722,5.42079 12.629307,5.44067 4.765507,0.0199 8.906641,-1.80496 12.475992,-5.448459 4.403084,-4.494551 6.176091,-9.622837 5.310311,-15.328736 z"
       sodipodi:nodetypes="ccccccccccccccccccccccccccccccccccccccccccccccccccccccccccccccccccccccccccccccccccccccccccccccccccccc" /><path
       style="fill:#f93208;fill-opacity:1;stroke:none;stroke-width:0.409936"
       d="m 319.308,301.59675 c 20.67635,-24.49121 32.56985,-56.05392 30.28607,-92.64553 -3.57051,-57.20789 -36.90735,-91.6461 -84.9994,-106.83382 l -144.67256,4.42895 c -67.051173,23.85909 -84.071731,71.36719 -80.927095,121.7805 1.80985,29.01465 12.28783,53.76761 28.495059,73.60318 z"
       id="path2612"
       sodipodi:nodetypes="ccccccc" /><path
       sodipodi:nodetypes="ccccccccccccccccccccccccc"
       d="m 37.351991,409.67402 c -0.298443,0.39436 -0.900874,0.36403 -1.004753,-0.0488 -3.702518,-14.71437 -4.613635,-30.44113 -2.810931,-46.27152 0.01915,-0.16814 -0.148891,-0.27132 -0.356644,-0.33615 -9.973237,-3.11209 -20.988469,-4.90219 -32.71125077,-4.67204 -0.6418977,0.0126 -0.62231291,-0.54275 0.0397638,-1.18308 C 12.965281,345.11444 27.978805,335.69001 44.691075,329.72708 c 5.780097,16.27651 11.561598,32.46327 17.101882,48.79654 0.106622,0.31433 0.538779,0.49115 0.989996,0.41567 0.07814,-0.0131 13.521154,-2.27372 23.745367,-3.66423 0.410346,4.30023 0.840779,8.59636 0.840779,8.59636 -21.195329,1.34582 -39.303507,11.64558 -50.017108,25.8026 z M 344.34935,329.72667 c -5.78092,16.27651 -11.44574,32.58637 -16.97463,48.91807 -0.10691,0.31581 -0.54435,0.49257 -0.99942,0.41567 -0.0689,-0.0116 -13.79271,-2.41452 -23.85869,-3.78576 -0.36033,4.00918 -0.81577,8.58652 -0.81577,8.58652 21.19533,1.34582 39.28831,11.65614 49.9921,25.81285 0.29844,0.39471 0.90614,0.36256 1.00967,-0.0488 3.70355,-14.71533 4.62756,-30.44219 2.81053,-46.27152 -0.0192,-0.16728 0.14892,-0.27299 0.35131,-0.33615 9.97683,-3.11371 20.98846,-4.9018 32.71617,-4.67204 0.64267,0.0126 0.6227,-0.54314 -0.0394,-1.18348 -12.46202,-12.05289 -27.47511,-21.47243 -44.19189,-27.43536 z"
       id="path2546"
       inkscape:connector-curvature="0"
       style="fill:#0eb242;fill-opacity:1;stroke:none;stroke-width:0.409936" /><path
       sodipodi:nodetypes="cccccccccccc"
       inkscape:connector-curvature="0"
       d="M 61.650536,378.57587 36.139811,333.15619 c 0.05411,-0.0193 0.118881,-0.0488 0.177912,-0.0746 0.816592,-0.36033 4.385085,-1.90005 8.373762,-3.34015 5.561601,15.65791 11.619225,33.12733 16.959051,48.83444 z m 265.738534,0.0791 c 5.34966,-15.74114 11.40237,-33.23064 16.97422,-48.92299 0.51447,0.17832 1.03919,0.37591 1.54956,0.56325 2.79084,1.03919 5.28038,2.09846 6.39787,2.58383 0.21316,0.0939 0.42592,0.18857 0.63909,0.28203 z"
       style="fill:#039933;fill-opacity:1;stroke:none;stroke-width:0.409936"
       id="path2574" /><path
       sodipodi:nodetypes="cccccccccccccccc"
       inkscape:connector-curvature="0"
       d="m 87.369099,383.87142 -24.827772,-4.78149 c 0.01025,-0.009 0.01968,-0.009 0.02951,-0.009 0.03444,0 0.06928,-0.01 0.103714,-0.0152 0.04468,-0.005 4.533072,-0.78626 10.283654,-1.72706 4.552339,-0.73214 9.125584,-1.41469 13.593886,-2.0587 z m 214.351011,0 v 0 c 0.005,-0.0295 0.45544,-4.59292 0.82151,-8.59185 4.2166,0.60425 8.52216,1.25728 12.81255,1.93982 6.09206,0.98016 10.99571,1.84061 11.04572,1.84594 0.0344,0.005 0.0693,0.0152 0.10905,0.0152 0.005,0 0.0143,0 0.0246,0.009 l -24.81342,4.7819 z"
       style="fill:#038d2f;fill-opacity:1;stroke:none;stroke-width:0.409936"
       id="path2582" /><path
       style="fill:#02902e;fill-opacity:1;stroke:none;stroke-width:0.409936"
       d="m 272.60113,296.15865 c -57.22804,-5.56799 -114.02009,-3.82334 -171.05439,1.454 -21.466463,1.98628 -42.777342,5.34369 -63.957796,9.21004 -0.5646,0.10306 -0.922282,0.46855 -0.801835,0.80142 8.550115,23.62954 16.838108,47.30144 24.887623,71.02961 0.106165,0.31295 0.543971,0.49512 0.994915,0.41608 86.934293,-15.2374 176.794333,-15.23745 263.724513,0 0.45054,0.079 0.89382,-0.10475 0.99943,-0.41608 8.04966,-23.72979 16.34029,-47.39891 24.88721,-71.02961 0.11953,-0.33047 -0.24635,-0.69881 -0.80102,-0.80017 -26.09446,-4.76864 -52.4468,-8.09361 -78.87865,-10.66529 z"
       id="path2604"
       sodipodi:nodetypes="ccccccccccc" /><path
       style="fill:#02902e;fill-opacity:1;stroke:none;stroke-width:0.409936"
       d="m 218.7339,92.725057 c 11.32817,-1.011722 36.10088,-0.444731 48.18674,11.419173 0.7267,0.71335 0.10329,2.362 -0.94039,2.08084 -8.85626,-2.38585 -20.19386,2.29818 -31.55739,5.67836 -11.36353,3.38019 -22.75298,5.45653 -31.71295,-2.14471 -0.4952,4.4437 -4.50283,25.90521 -35.09626,22.72193 -0.72322,-0.0753 -1.00896,-0.86004 -0.48044,-1.31098 4.74695,-4.05016 10.55585,-15.19304 5.56775,-22.31896 -15.56896,10.33284 -23.61123,10.78329 -52.32874,-1.65573 -0.93521,-0.40509 -0.37621,-1.92884 0.72272,-2.17471 5.96797,-1.33526 20.14139,-6.492535 32.85473,-8.893155 2.42478,-0.457863 4.81019,-0.739524 7.10624,-0.771909 -13.15854,-3.130271 -18.89885,-5.857668 -27.55959,-5.817401 -0.94981,0.0044 -1.42856,-1.173517 -0.74239,-1.833234 13.5714,-13.048135 38.16463,-13.707849 50.01711,-3.993596 l -10.62021,-22.175487 12.89658,-1.940226 c 0,0 3.36517,11.822553 6.38393,22.452603 13.42582,-14.714652 34.20938,-13.229503 41.21333,-0.373452 0.41426,0.760384 -0.2712,1.661918 -1.13307,1.514303 -7.04132,-1.205996 -11.87256,4.661792 -12.88223,9.511745 z"
       id="path2606"
       sodipodi:nodetypes="cccccccccccccccccccccc" /><path
       id="polygon2626"
       style="fill:#ffffff;stroke:none;stroke-width:0.409936"
       d="m 186.04725,211.93772 h 28.78283 v -16.30521 h -28.78283 v -7.38868 h 30.32583 v -16.86067 h -50.26389 v 65.97428 h 50.26389 v -16.85001 h -30.32583 z m 33.48316,-20.23239 c 0,5.3472 1.80102,10.00112 5.52306,13.72793 3.64805,3.65272 8.40518,5.81226 13.96078,6.84388 l 9.80854,1.82135 c 5.38025,0.99906 5.39435,3.05853 5.39435,3.76075 0,2.3063 -2.62318,3.74108 -6.82913,3.74108 -6.76066,0 -12.25935,-2.92851 -16.87542,-8.89725 l -0.817,-1.05641 -12.04966,12.15624 0.54399,0.79159 c 5.9063,8.59459 16.2765,13.76852 27.8367,13.76852 7.66088,0 13.91897,-1.89377 19.12187,-5.776 5.24924,-3.9168 7.91791,-9.08582 7.91791,-15.36522 0,-12.08778 -7.17971,-19.42175 -21.30027,-21.93321 l -8.72385,-1.55161 c -4.65512,-0.82795 -4.66179,-2.60801 -4.66179,-3.20652 0,-1.63564 1.59793,-3.37992 6.10149,-3.37992 5.12789,0 9.65284,2.48645 13.90175,7.57152 l 0.8457,1.01213 12.05047,-12.89126 -0.6727,-0.78954 c -6.60841,-7.75621 -15.16804,-11.66161 -25.398,-11.66185 -6.94677,-1.7e-4 -13.02072,1.97509 -18.05685,5.86864 -5.06428,3.91532 -7.62194,9.11083 -7.62194,15.44516 z m 92.9087,45.65211 h 18.94356 v -65.97141 h -18.94356 v 23.79391 h -18.19746 v -23.79391 h -18.84353 v 65.97141 h 18.84353 V 213.0302 h 18.19746 z M 75.996655,213.93984 H 102.23502 V 197.62685 H 75.996655 v -9.3904 H 104.32364 V 171.38603 H 57.14206 v 65.97141 h 18.854595 z m 55.174105,3.71689 11.70859,19.70563 h 21.6852 l -13.94028,-23.39259 c 7.33908,-3.97146 11.05556,-10.50789 11.05556,-19.45064 0,-14.70318 -10.05122,-23.12818 -27.585,-23.12818 h -26.4958 v 65.97141 h 18.85541 l 2.1e-4,-19.70563 z m -4.71591,-29.41782 h 6.64097 c 5.84978,0 9.73434,1.03919 9.73434,6.10148 0,2.8134 -1.00968,6.55693 -9.73434,6.55693 h -6.64097 z"
       sodipodi:nodetypes="cccccccccccccccccccccccccccccccccccccccccccccccccccccccccccccccccccccccccccccc" /><path
       id="path21864"
       style="fill:#fed801;fill-opacity:1;stroke:none;stroke-width:0.259855"
       d="m 101.45312,277.64648 v 38.78125 h 11.88868 v -12.46679 h 1.82422 l 7.29687,12.46679 h 13.48633 l -8.0957,-13.83007 c 4.64127,-2.44264 6.26953,-6.57476 6.26953,-11.51954 0,-8.16204 -5.89115,-13.43164 -15.53125,-13.43164 z m 69.4004,1.20508 v 8.0625 h -3.06641 v 10.10938 h 3.06641 v 8.75195 c 0,7.11873 4.99115,10.82813 10.83398,10.82813 h 6.74805 v -10.24024 c -1.01785,0.0156 -3.07654,0.0156 -4.20508,0.0156 -0.88377,0 -1.60742,-0.7234 -1.60742,-1.60743 v -7.74804 h 4.68164 v -10.10938 h -4.68164 v -8.0625 z m 21.52734,0 v 8.0625 h -3.06641 v 10.10938 h 3.06641 v 8.75195 c 0,7.11873 4.99036,10.82813 10.83398,10.82813 h 6.74805 v -10.24024 c -1.01785,0.0156 -3.07601,0.0156 -4.20508,0.0156 -0.88454,0 -1.60742,-0.7234 -1.60742,-1.60743 v -7.74804 h 4.68164 v -10.10938 h -4.68164 v -8.0625 z m 33.64258,0.41211 c -8.36135,0 -15.4315,6.02934 -15.43164,15.98828 -1.2e-4,9.71935 7.13096,15.38867 15.67187,15.38867 6.26355,0 10.88184,-1.37175 14.16406,-5.11132 l -7.12109,-6.77344 c -2.18512,1.65657 -3.89087,2.33984 -6.23242,2.33984 -2.12457,0 -4.84547,-0.83579 -5.87891,-3.47851 h 19.59961 c 1.07996,-11.81638 -5.81091,-18.35352 -14.77148,-18.35352 z m 36.07812,6.75391 c -2.91713,0 -5.76974,1.30132 -7.67578,3.60156 v -2.64844 h -11.88672 v 29.45703 h 11.88672 v -15.36132 c 0,-5.97484 6.63867,-5.1687 6.63867,-0.86524 v 16.22656 h 11.85352 v -18.66015 c 0,-5.75969 -3.22605,-11.75 -10.81641,-11.75 z m -111.57422,0.0605 c -9.29761,0 -16.4707,5.62932 -16.4707,15.51758 0,9.88826 7.17309,15.51758 16.4707,15.51758 9.29683,0 16.47071,-5.03633 16.47071,-15.51758 0,-10.48124 -7.17388,-15.51758 -16.47071,-15.51758 z m -37.18554,0.70508 h 3.41211 c 2.99951,0 5.03515,1.64018 5.03515,4.02149 0,2.43692 -1.86596,4.01953 -5.03515,4.01953 h -3.41211 z m 112.47461,1.35742 c 2.19682,0 3.97962,1.31302 4.55078,3.59766 h -9.05274 c 0.84999,-2.36571 2.59593,-3.59765 4.50196,-3.59766 z m -160.242191,23.9336 v 11.24805 h 10.037109 v 27.5332 h 11.402344 v -27.5332 h 10.095703 v -11.24805 z m 148.781251,1.17383 v 8.0625 h -3.06641 v 10.10742 h 3.06641 v 8.75391 c 0,7.11975 4.98841,10.82812 10.83203,10.82812 h 6.75 v -10.24023 c -1.01785,0.0159 -3.07731,0.0156 -4.20508,0.0156 -0.88429,0 -1.60742,-0.72287 -1.60742,-1.60742 v -7.75 h 4.68164 V 321.31055 H 226.125 v -8.0625 z m 115.33008,4.76562 c -1.2417,0 -2.29451,0.43677 -3.15625,1.32617 -0.84975,0.87703 -1.27735,1.93951 -1.27735,3.20704 0,1.24702 0.42403,2.31394 1.27735,3.1875 0.85822,0.87857 1.91455,1.31054 3.15625,1.31054 1.24211,0 2.30855,-0.43701 3.17187,-1.31054 0.86825,-0.87852 1.30682,-1.94049 1.30664,-3.1875 -1.7e-4,-1.26712 -0.44187,-2.32467 -1.30664,-3.20704 -0.8668,-0.88445 -1.92976,-1.32617 -3.17187,-1.32617 z m -88.01367,0.002 -2.1836,1.8125 2.54883,2.22266 c -2.38703,-0.45787 -4.80317,0.36269 -6.30273,2.63477 -0.25737,0.39001 -0.36565,0.6135 -0.34376,0.72656 0.0219,0.1131 0.17169,0.10685 0.4375,0.0645 1.23319,-0.19683 2.80397,-0.38815 4.2168,-0.37695 -3.93056,2.61648 -6.4669,6.56764 -6.4414,11.61133 0.045,8.90511 7.10149,14.64258 15.68164,14.64258 8.50115,0 17.70163,-6.23466 17.52929,-15.36719 -0.1845,-9.77687 -7.98123,-15.7805 -18.15429,-14.23047 0.006,-0.86168 0.28713,-1.52807 0.99609,-1.90625 0.35255,-0.18805 0.58984,-0.17913 0.58984,-0.31641 0,-0.073 -0.049,-0.1544 -0.24023,-0.30664 -2.08307,-1.65869 -5.07146,-0.0244 -6.02148,2.22071 z m 88.01367,1.17579 c 0.91581,0 1.67695,0.33299 2.30664,0.98047 0.63174,0.6496 0.94336,1.43993 0.94336,2.375 0,0.93013 -0.30882,1.71309 -0.94336,2.35546 -0.62685,0.63459 -1.39083,0.94922 -2.30664,0.94922 -0.8957,0 -1.67284,-0.31137 -2.29102,-0.94922 -0.61901,-0.6387 -0.93164,-1.42532 -0.93164,-2.35546 0,-0.93507 0.31549,-1.72906 0.93164,-2.375 0.62105,-0.6511 1.39532,-0.98047 2.29102,-0.98047 z m -46.28907,1.05078 c -8.36005,0 -15.43151,6.02986 -15.43164,15.98828 -1.3e-4,9.71961 7.12993,15.38867 15.67188,15.38867 6.2638,0 10.88054,-1.37135 14.16406,-5.10937 l -7.12109,-6.77539 c -2.18668,1.65656 -3.89061,2.33984 -6.23242,2.33984 -2.12483,0 -4.84716,-0.838 -5.88086,-3.48047 h 19.60156 c 1.0784,-11.81586 -5.81091,-18.35156 -14.77149,-18.35156 z m 44.63086,0.14648 v 4.10352 h 1.11914 v -1.12305 h 0.55469 l 0.78711,1.12305 h 1.25586 l -0.96484,-1.31055 c 0.5735,-0.25785 0.85156,-0.70413 0.85156,-1.33789 0,-0.98016 -0.76182,-1.45508 -1.74609,-1.45508 z m -15.58789,0.0137 c -7.07455,0 -13.03332,4.791 -13.0332,10.26172 1.4e-4,6.56264 7.11471,9.77831 12.85937,9.63672 1.8169,-0.0448 2.31641,0.16003 2.31641,1.00586 0,0.86324 -1.16429,1.50586 -2.71094,1.50586 -2.87997,0 -5.43494,-0.92964 -8.4082,-2.89648 l -4.69531,7.85156 c 2.94675,2.92467 9.22383,4.02525 13.28125,4.03125 7.88087,0.0125 13.38086,-4.96609 13.38086,-10.59766 0,-7.44874 -5.87334,-9.78458 -13.71485,-9.83008 -1.29358,-0.008 -1.86132,-0.43025 -1.86132,-1.23632 0,-0.69173 1.05707,-1.21647 1.95507,-1.22657 1.34672,-0.0151 4.74397,0.61246 8.09766,2.27735 l 4.4668,-7.22461 c -3.10578,-2.14718 -7.33209,-3.5586 -11.9336,-3.5586 z m -203.2207,0.041 c -9.15002,0 -16.208984,5.62932 -16.208984,15.51758 0,9.88826 7.058704,15.51562 16.208984,15.51562 9.15052,0 16.21094,-5.03438 16.21094,-15.51562 0,-10.48125 -7.06068,-15.51758 -16.21094,-15.51758 z m 80.98047,0 c -7.71717,0 -13.67005,6.00025 -13.66992,15.51562 1.3e-4,9.72273 5.95275,15.51758 13.66992,15.51758 2.96962,0 5.62636,-1.39625 7.52148,-3.93945 v 3.16016 h 11.51758 V 321.24023 H 197.7207 v 3.27149 c -1.80911,-2.53358 -4.51288,-4.06836 -7.52148,-4.06836 z m -44.19531,0.006 c -2.66663,0 -5.32244,0.95655 -7.21289,2.8457 v -2.05273 h -11.51758 v 29.45508 h 11.51758 v -15.65625 c 0,-5.69134 6.15429,-4.71241 6.15429,-0.57032 v 16.22657 h 11.62891 v -15.65625 c 0,-5.69134 6.28125,-4.71241 6.28125,-0.57032 v 16.22657 h 11.81445 v -18.65821 c 0,-6.81028 -4.11498,-11.58984 -11.70508,-11.58984 -2.94701,0 -5.99703,1.34884 -7.99609,3.70703 -1.61682,-2.67053 -4.51482,-3.70703 -8.96484,-3.70703 z m 183.14257,0.9043 h 0.53907 c 0.53989,0 0.82226,0.16433 0.82226,0.49023 0,0.34188 -0.28196,0.52539 -0.82226,0.52539 h -0.53907 z m -45.95898,7.76562 c 2.19681,0 3.98313,1.31301 4.55273,3.59766 h -9.05273 c 0.84868,-2.36676 2.59552,-3.59766 4.5,-3.59766 z m -173.93359,1.58008 c 2.86827,0 5.08203,1.56564 5.08203,4.82422 0,3.25806 -2.21376,4.82422 -5.08203,4.82422 -2.86906,0 -5.08204,-1.75014 -5.08203,-4.82422 0,-3.0746 2.21297,-4.82422 5.08203,-4.82422 z m 83.57812,0.48437 c 2.51176,0 4.67969,1.89527 4.67969,4.64063 0,2.74563 -1.71267,4.80469 -4.67969,4.80469 -2.96702,0 -4.76562,-2.05906 -4.76562,-4.80469 0,-2.74536 2.25412,-4.64063 4.76562,-4.64063 z"
       sodipodi:nodetypes="cccccccccccccccccccccccccccccccccccccccccccccccccccccccccccccccccccccccccccccccccccccccccccccccccccccccccccccccccccccccccccccccccccccccccccccccccccccccccccccccccccccccccccccccccccccccccccccccccccccccccccccccccccccccccccccccccccccc" /><path
       style="fill:#02902e;fill-opacity:1;stroke:none;stroke-width:0.259855"
       d="m 150.42529,291.94523 c 0.66734,0.67193 0.79987,1.60764 0.64298,2.50705 -0.0884,0.50692 -0.24286,1.00512 -0.36542,1.50354 -0.26436,1.075 -0.35826,2.27693 0.742,2.92339 1.16724,0.68582 2.11529,0.0408 2.56913,-1.09976 0.23139,-0.5815 0.3832,-1.21944 0.64158,-1.78109 0.77844,-1.69207 3.22808,-2.05659 4.40461,-0.58091 0.85112,1.06752 0.91753,2.75181 0.0593,3.83695 -1.05065,1.32839 -2.53112,0.77251 -4.08591,1.12696 -0.6913,0.15759 -1.11608,0.7553 -1.14178,1.40441 -0.0257,0.64912 0.34766,1.34963 1.25266,1.71284 1.21757,0.48866 2.56295,0.4532 3.80139,0.86126 2.22892,0.73443 2.89069,2.63258 2.40265,4.00023 -0.48803,1.36765 -2.12587,2.2048 -4.49617,0.81723 -1.40289,-0.82125 -1.73539,-1.85363 -2.71348,-2.92967 -0.67614,-0.74385 -1.41624,-0.87073 -1.8894,-0.57648 -0.47316,0.29425 -0.67939,1.00963 -0.2878,1.95031 0.29054,0.69796 0.80116,1.40673 0.78663,2.19254 -0.0246,1.32877 -1.17113,2.02325 -2.35466,2.08032 -1.18353,0.0571 -2.40402,-0.52328 -2.57646,-1.74418 -0.19068,-1.35 0.5083,-2.30227 0.47909,-3.50152 -0.0175,-0.71758 -0.43266,-1.09385 -0.93758,-1.16535 -0.50492,-0.0715 -1.09959,0.16176 -1.47603,0.66324 -0.44556,0.59358 -0.90869,1.22826 -1.52655,1.65766 -1.25737,0.87386 -3.18344,0.95129 -3.95202,-0.57812 -0.42052,-0.83682 -0.34485,-1.9617 0.2399,-2.70581 0.68334,-0.86959 1.75173,-0.7964 2.74905,-0.77478 0.42954,0.009 0.86792,0.0354 1.29641,0.0216 0.58651,-0.0189 1.05814,-0.20052 1.10534,-0.86056 0.0593,-0.82971 -0.65676,-1.16033 -1.32989,-1.37104 -0.93069,-0.29133 -2.56151,-0.52242 -3.29788,-1.10743 -1.47734,-1.17368 -1.28717,-3.21014 0.52861,-3.81742 0.59204,-0.19801 1.34948,-0.18894 1.92754,0.0551 0.85244,0.35987 1.44322,1.38126 1.92406,2.1249 0.51233,0.79236 0.97969,1.11714 1.95752,0.97423 1.16285,-0.16996 1.37414,-1.09523 0.98818,-2.06213 -0.31065,-0.77826 -0.92344,-1.19463 -1.60884,-1.60815 -1.20472,-0.72684 -1.63352,-2.1811 -0.9819,-3.41922 0.50298,-0.9557 1.6638,-1.48617 2.76369,-1.44704 0.65993,0.0235 1.29805,0.2523 1.75947,0.71691 z"
       id="path21862"
       sodipodi:nodetypes="ccccccccccccccccccccccccccccccccccccccccc" /></g></g></svg>
